<svg xmlns="http://www.w3.org/2000/svg" viewBox="0 0 32 32" width="32" height="32">
  <rect width="32" height="32" rx="8" fill="#E8F0E5"/>
  <rect x="0.5" y="0.5" width="31" height="31" rx="7.5" fill="none" stroke="#4A7C59" stroke-opacity="0.2"/>
  <path d="M16 6c-4 3.2-6 6.6-6 10.2 0 3.6 2.7 5.8 6 5.8s6-2.2 6-5.8C22 12.6 20 9.2 16 6z" fill="#4A7C59" fill-opacity="0.15"/>
  <path d="M16 6c-4 3.2-6 6.6-6 10.2 0 3.6 2.7 5.8 6 5.8s6-2.2 6-5.8C22 12.6 20 9.2 16 6z" fill="none" stroke="#4A7C59" stroke-width="1.6" stroke-linejoin="round"/>
  <path d="M16 9.5v12.5" stroke="#4A7C59" stroke-width="1.6" stroke-linecap="round"/>
  <path d="M16 15.5l3.4-2.6M16 19l-3.4-2.6" stroke="#4A7C59" stroke-width="1.4" stroke-linecap="round"/>
</svg>
